<?xml version="1.0" encoding="UTF-8"?>
<svg width="20px" height="20px" viewBox="0 0 20 20" version="1.1" xmlns="http://www.w3.org/2000/svg" xmlns:xlink="http://www.w3.org/1999/xlink">
    <!-- Generator: Sketch 45.1 (43504) - http://www.bohemiancoding.com/sketch -->
    <title>share-icon</title>
    <desc>Created with Sketch.</desc>
    <defs></defs>
    <g id="In-channel-web" stroke="none" stroke-width="1" fill="none" fill-rule="evenodd">
        <g id="In-channel-Channel-detail-v2" transform="translate(-970.000000, -913.000000)" fill="#7390A3">
            <g id="Post1" transform="translate(427.000000, 209.000000)">
                <g id="Group" transform="translate(23.000000, 704.000000)">
                    <path d="M523.333333,0 C521.488889,0 520,1.48888889 520,3.33333333 L520,16.6666667 C520,18.4888889 521.488889,20 523.333333,20 L536.666667,20 C538.488889,20 540,18.4888889 540,16.6666667 L540,11.5777778 C540,11.2888889 539.888889,11 539.666667,10.8 L539.666667,10.8 C538.977778,10.1111111 537.777778,10.6 537.777778,11.5777778 L537.777778,16.6666667 C537.777778,17.2888889 537.288889,17.7777778 536.666667,17.7777778 L523.333333,17.7777778 C522.711111,17.7777778 522.222222,17.2888889 522.222222,16.6666667 L522.222222,3.33333333 C522.222222,2.71111111 522.711111,2.22222222 523.333333,2.22222222 L528.422222,2.22222222 C529.422222,2.22222222 529.911111,1.02222222 529.2,0.333333333 L529.2,0.333333333 C529,0.111111111 528.733333,0 528.422222,0 L523.333333,0 L523.333333,0 Z M532.955556,0.733333333 L534.866667,2.64444444 C535.044444,2.82222222 535.044444,3.08888889 534.866667,3.24444444 L527.777778,10.3555556 C527.266667,10.8666667 527.266667,11.7111111 527.777778,12.2222222 L527.777778,12.2222222 C528.288889,12.7333333 529.133333,12.7333333 529.644444,12.2222222 L536.733333,5.13333333 C536.911111,4.95555556 537.177778,4.95555556 537.333333,5.13333333 L539.244444,7.04444444 C539.511111,7.31111111 539.977778,7.13333333 539.977778,6.73333333 L539.977778,0.422222222 C540,0.2 539.8,0 539.577778,0 L533.266667,0 C532.866667,0 532.688889,0.466666667 532.955556,0.733333333 L532.955556,0.733333333 Z" id="share-icon"></path>
                </g>
            </g>
        </g>
    </g>
</svg>